<!DOCTYPE svg PUBLIC "-//W3C//DTD SVG 20010904//EN" "http://www.w3.org/TR/2001/REC-SVG-20010904/DTD/svg10.dtd">
<svg version="1.0" xmlns="http://www.w3.org/2000/svg" width="350px" height="418px" viewBox="0 0 3500 4180" preserveAspectRatio="xMidYMid meet">
<g id="layer101" fill="#000000" stroke="none">
 <path d="M1448 4120 c-7 -17 -11 -41 -28 -175 -6 -49 -16 -127 -22 -172 -7 -59 -13 -80 -23 -77 -10 4 -10 -6 -3 -48 6 -29 7 -78 4 -108 -3 -30 -8 -80 -11 -110 -3 -37 -2 -48 4 -35 8 19 9 18 20 -8 6 -16 12 -54 13 -85 1 -32 5 -7 8 58 5 104 6 98 6 -65 0 -99 -2 -153 -5 -120 l-6 60 -15 -75 c-11 -57 -16 -69 -20 -50 -10 38 -21 -80 -16 -169 6 -109 35 -126 47 -28 5 41 8 47 14 30 11 -34 45 -30 45 5 0 15 3 133 6 262 3 129 6 325 7 435 0 212 -15 500 -25 475z m-61 -457 c-4 -3 -7 0 -7 7 0 7 3 10 7 7 3 -4 3 -10 0 -14z m40 -175 c-3 -8 -6 -5 -6 6 -1 11 2 17 5 13 3 -3 4 -12 1 -19z m-10 -440 c-2 -13 -4 -3 -4 22 0 25 2 35 4 23 2 -13 2 -33 0 -45z m0 -45 c-4 -3 -7 0 -7 7 0 7 3 10 7 7 3 -4 3 -10 0 -14z"/>
 <path d="M1561 3775 c1 -28 -8 -84 -20 -125 -15 -50 -24 -117 -28 -200 -3 -69 -10 -130 -15 -137 -5 -7 -4 -30 4 -60 l13 -48 6 50 c4 34 6 16 7 -60 0 -60 -2 -103 -5 -95 -11 25 -33 -73 -28 -120 4 -33 3 -39 -4 -25 -9 18 -10 17 -12 -10 -1 -16 -4 -43 -6 -60 -2 -16 -3 -97 -3 -180 -1 -105 -6 -167 -17 -205 -8 -30 -16 -80 -17 -110 -7 -186 -21 -352 -27 -325 -6 26 -7 24 -8 -16 0 -25 2 -49 7 -55 4 -5 5 -31 2 -59 l-6 -50 -9 50 -9 50 -12 -50 c-7 -27 -13 -72 -14 -100 -1 -27 -5 -59 -10 -70 -11 -23 -4 106 10 200 5 33 11 96 14 140 4 44 8 112 11 151 3 40 7 78 11 87 7 19 -14 33 -29 18 -6 -6 -11 -21 -13 -33 -7 -73 -24 -151 -36 -165 -11 -14 -14 -13 -19 13 -6 27 -7 26 -9 -11 -1 -22 -6 -53 -10 -70 -7 -28 -8 -27 -10 15 l-2 45 -8 -35 c-41 -182 -52 -240 -47 -254 6 -16 8 -16 32 0 14 9 29 30 34 48 8 26 9 19 10 -41 1 -39 -3 -83 -9 -97 -8 -22 -13 -24 -47 -20 -34 5 -131 24 -223 44 -56 12 -90 28 -90 44 0 10 -34 25 -102 46 -57 18 -116 37 -133 44 -63 27 -152 49 -266 67 -78 12 -171 1 -185 -22 -3 -5 -20 -9 -38 -9 -32 0 -34 -3 -54 -62 -12 -35 -29 -85 -38 -111 -21 -60 -14 -68 60 -74 63 -4 81 10 46 39 -21 17 -21 18 -2 18 30 0 53 -11 46 -21 -6 -10 70 -47 121 -60 l30 -7 -33 -1 c-60 -2 -82 -53 -42 -96 11 -12 22 -36 23 -54 2 -30 8 -36 54 -46 10 -2 43 -11 73 -19 30 -9 73 -16 95 -15 l40 0 -40 21 c-22 12 -60 27 -85 34 -35 9 -39 12 -18 13 15 1 39 -4 55 -10 69 -27 173 -46 205 -39 39 9 42 8 -132 55 -44 12 -47 14 -15 10 22 -3 59 -9 83 -14 36 -7 40 -6 31 6 -22 26 -1 24 73 -6 66 -28 101 -38 135 -40 7 -1 22 -11 33 -23 16 -17 19 -18 15 -5 -8 19 -2 21 24 7 22 -11 56 -19 151 -31 96 -12 108 -17 45 -18 -37 -1 -46 -4 -35 -11 19 -13 -76 -3 -101 11 -23 12 -52 12 -44 0 3 -5 18 -12 34 -16 17 -3 31 -14 34 -26 4 -17 14 -19 79 -19 110 0 148 -9 148 -33 0 -18 -5 -19 -85 -15 -47 2 -85 1 -85 -3 0 -8 51 -25 100 -33 14 -2 -4 -4 -40 -3 -37 1 -75 -5 -89 -12 -13 -7 -37 -11 -53 -9 -33 5 -111 -28 -87 -36 8 -3 50 -12 94 -21 174 -35 180 -40 146 -146 -18 -54 -46 -167 -55 -219 -9 -54 -19 -91 -27 -96 -5 -3 -9 -14 -9 -25 0 -10 -4 -27 -9 -37 -7 -15 -24 -87 -50 -220 -3 -18 -10 -33 -16 -32 -5 0 -16 -19 -24 -42 -8 -24 -18 -45 -22 -46 -5 -2 -9 -8 -9 -13 0 -6 4 -8 8 -5 5 3 14 -10 20 -27 12 -33 140 -167 160 -167 6 0 13 8 15 18 4 14 5 14 6 -3 1 -13 15 -26 41 -37 22 -9 40 -23 40 -31 0 -9 9 -12 29 -9 19 2 28 9 27 20 -1 14 10 18 51 20 42 2 54 8 67 27 9 14 24 25 34 24 13 0 12 -3 -5 -11 -27 -13 -31 -42 -5 -34 9 2 28 8 42 11 33 9 97 71 120 116 11 20 27 39 36 43 9 3 14 13 10 21 -3 8 4 36 16 62 19 42 42 126 54 193 2 14 9 48 14 75 14 78 24 385 12 385 -13 0 -22 -25 -22 -60 0 -16 -5 -32 -10 -35 -6 -4 -8 -9 -6 -13 5 -8 -27 -165 -44 -217 -19 -58 -23 -33 -6 35 9 34 13 66 10 71 -3 6 -1 15 4 22 12 14 28 207 18 207 -4 0 -16 -21 -26 -46 -24 -55 -39 -184 -21 -184 19 0 12 -17 -10 -23 -21 -6 -22 -4 -16 74 4 43 4 79 2 79 -2 0 -11 -12 -20 -27 -15 -27 -15 -24 -10 52 4 44 9 90 12 103 4 16 1 22 -11 22 -9 0 -16 -8 -16 -19 0 -11 -5 -23 -11 -26 -7 -5 -9 5 -7 26 4 32 7 34 44 36 42 3 212 -12 334 -29 41 -5 94 -11 118 -12 40 -1 61 -15 25 -17 -10 0 -4 -5 12 -10 17 -5 39 -6 50 -2 19 6 18 7 -5 14 -54 15 162 14 245 -1 63 -12 275 -18 269 -8 -3 5 -16 8 -30 8 -13 0 -24 5 -24 10 0 6 7 10 15 10 8 0 15 5 15 10 0 6 -13 10 -30 10 -16 0 -30 -4 -30 -10 0 -14 -36 -12 -121 5 -95 19 -119 23 -144 24 -15 1 -17 3 -6 10 11 7 10 13 -3 33 l-15 24 166 -3 c91 -1 163 0 159 4 -3 4 -23 8 -44 10 -20 2 -71 10 -112 18 -101 19 -177 22 -192 7 -10 -10 -10 -15 2 -22 34 -22 -327 -2 -460 25 -45 9 -55 14 -32 14 66 2 28 19 -75 34 l-108 16 81 -5 c45 -2 104 -11 130 -19 69 -21 76 -18 24 10 -51 27 -42 29 66 14 54 -7 80 -7 87 0 20 20 31 11 12 -9 -35 -39 -14 -50 93 -50 55 0 114 3 132 6 l32 7 -28 12 c-25 11 -19 12 51 8 76 -5 150 8 115 20 -8 3 -51 17 -95 31 -59 18 -69 24 -40 21 22 -2 74 -7 115 -10 41 -3 107 -10 145 -15 188 -24 309 -33 313 -21 2 6 7 9 11 7 14 -9 224 -27 315 -28 111 0 296 13 296 21 0 3 -35 7 -77 9 -42 1 -95 7 -117 12 -54 12 -113 13 -118 0 -1 -5 -30 -12 -63 -14 l-60 -6 49 16 c28 9 44 19 37 23 -6 4 -55 8 -109 9 -123 3 -286 22 -275 33 4 4 61 4 126 -1 128 -10 277 -3 239 11 -37 14 -221 31 -360 34 -73 1 -135 5 -139 9 -3 3 15 6 42 6 50 0 115 18 115 32 0 4 -24 8 -52 8 -29 0 -84 2 -123 5 -58 5 -66 3 -47 -6 34 -19 27 -36 -13 -31 -19 2 -35 8 -35 12 0 21 -277 79 -302 64 -13 -8 -57 8 -55 19 1 8 -37 16 -111 23 -133 13 -170 33 -88 46 11 2 21 9 24 16 2 7 0 12 -5 10 -18 -4 -113 15 -120 25 -5 9 42 7 99 -5 15 -3 15 12 3 117 -5 39 -8 78 -7 88 2 34 -17 16 -26 -25 l-10 -43 -1 41 c-1 22 3 44 8 50 5 5 12 25 15 44 7 35 7 35 -8 10 l-15 -25 -1 28 c0 16 -4 26 -8 23 -10 -6 -26 -74 -46 -196 l-14 -85 -1 73 c0 39 -5 72 -9 72 -9 0 -29 -74 -31 -114 -1 -31 -7 -43 -17 -34 -3 3 -1 32 5 64 6 32 11 77 11 101 0 24 4 63 10 86 11 49 18 287 8 287 -6 0 -21 -59 -32 -130 -2 -14 -4 0 -4 30 0 87 -1 88 -12 70 -8 -11 -10 1 -9 42 2 32 -2 57 -7 55 -5 -1 -8 -22 -7 -47 7 -147 5 -227 -6 -320 -7 -58 -16 -133 -19 -168 -6 -58 -8 -62 -25 -50 -16 12 -16 22 -6 118 14 137 28 432 20 445 -3 5 -9 -1 -13 -15 -4 -14 -6 17 -5 73 1 53 -1 97 -4 97 -6 0 -29 -93 -29 -120 0 -11 -6 -23 -13 -27 -7 -4 -21 -34 -31 -66 -10 -32 -20 -57 -21 -55 -6 6 14 378 20 389 12 18 37 372 27 378 -5 3 -12 27 -16 54 -5 30 -11 45 -18 41 -8 -5 -9 1 -5 17 4 13 7 58 7 99 0 52 3 70 10 60 11 -17 12 27 10 318 -1 125 2 182 9 182 6 0 11 9 11 20 0 11 -4 20 -9 20 -12 0 -31 -56 -31 -91 0 -15 -4 -31 -10 -34 -14 -9 -13 22 5 103 13 64 13 138 -1 151 -3 3 -4 -17 -3 -44z m6 -502 c-3 -10 -5 -2 -5 17 0 19 2 27 5 18 2 -10 2 -26 0 -35z m-60 -370 c-4 -3 -7 0 -7 7 0 7 3 10 7 7 3 -4 3 -10 0 -14z m-180 -830 c-3 -10 -5 -2 -5 17 0 19 2 27 5 18 2 -10 2 -26 0 -35z m-912 -158 l30 -13 -30 -1 c-39 -1 -75 9 -75 20 0 13 41 10 75 -6z m-215 -35 c0 -5 -5 -10 -11 -10 -5 0 -7 5 -4 10 3 6 8 10 11 10 2 0 4 -4 4 -10z m183 -32 c37 -11 66 -23 63 -25 -3 -3 -20 -1 -38 5 -18 5 -59 15 -90 22 -32 6 -60 15 -62 19 -8 12 53 2 127 -21z m83 13 c-3 -5 -15 -7 -26 -4 -28 7 -25 13 6 13 14 0 23 -4 20 -9z m204 -1 c8 -5 11 -10 5 -10 -5 0 -17 5 -25 10 -8 5 -10 10 -5 10 6 0 17 -5 25 -10z m84 -25 c29 -9 52 -11 55 -6 9 14 61 1 61 -16 0 -24 143 -73 214 -73 18 0 46 -4 62 -9 25 -8 75 -18 172 -37 20 -4 23 -10 20 -42 -3 -41 5 -40 -118 -24 -40 5 -64 12 -63 19 2 11 -231 93 -263 93 -7 0 -16 5 -20 11 -4 8 4 9 27 5 23 -5 29 -4 19 2 -24 15 -113 26 -105 13 3 -6 13 -11 22 -11 10 0 13 -6 9 -16 -3 -9 -6 -17 -6 -19 0 -2 -22 5 -48 15 -28 11 -54 15 -61 10 -14 -8 -26 -5 -121 29 -59 21 -58 26 3 12 21 -5 37 -5 37 0 0 5 -11 9 -25 9 -14 0 -25 4 -25 9 0 6 12 6 32 0 44 -12 101 -12 93 1 -3 6 -17 10 -31 10 -21 0 -23 2 -12 15 16 18 13 18 72 0z m-97 -2 c-4 -3 -10 -3 -14 0 -3 4 0 7 7 7 7 0 10 -3 7 -7z m-233 -29 c18 -7 12 -24 -8 -24 -7 0 -21 7 -32 15 -19 14 -19 14 3 15 12 0 28 -3 37 -6z m-254 -8 c0 -2 -7 -9 -15 -16 -12 -10 -15 -10 -15 4 0 9 7 16 15 16 8 0 15 -2 15 -4z m162 -15 c29 -10 81 -25 116 -32 83 -17 103 -39 37 -39 -35 0 -69 11 -131 41 -74 36 -95 49 -79 49 2 0 28 -9 57 -19z m199 -17 c12 -15 11 -16 -11 -9 -46 14 -58 24 -29 25 15 0 33 -7 40 -16z m233 -73 c3 -5 22 -12 42 -16 20 -3 34 -8 31 -11 -7 -7 -106 17 -113 27 -3 5 4 9 15 9 11 0 22 -4 25 -9z m-327 -7 c-3 -3 -12 -4 -19 -1 -8 3 -5 6 6 6 11 1 17 -2 13 -5z m3 -34 c22 -7 21 -8 -12 -9 -21 -1 -38 4 -38 9 0 11 14 11 50 0z m252 -29 c13 -5 32 -12 42 -15 10 -4 16 -9 14 -12 -6 -5 -108 25 -108 32 0 7 29 4 52 -5z m-107 -27 c20 -8 35 -17 33 -20 -6 -5 -70 16 -82 27 -15 14 7 11 49 -7z m190 -14 c3 -5 4 -10 1 -10 -3 0 -8 5 -11 10 -3 6 -4 10 -1 10 3 0 8 -4 11 -10z m82 -7 c-4 -3 -10 -3 -14 0 -3 4 0 7 7 7 7 0 10 -3 7 -7z m-360 -9 c-3 -3 -12 -4 -19 -1 -8 3 -5 6 6 6 11 1 17 -2 13 -5z m390 -1 c-4 -3 -10 -3 -14 0 -3 4 0 7 7 7 7 0 10 -3 7 -7z m339 -23 c34 -10 70 -22 80 -28 25 -14 -1 -25 -27 -11 -15 8 -23 8 -28 0 -5 -7 -17 -8 -40 -1 -47 13 -91 34 -91 42 0 4 -15 12 -32 17 -60 19 69 1 138 -19z m-689 14 c-3 -3 -12 -4 -19 -1 -8 3 -5 6 6 6 11 1 17 -2 13 -5z m456 -16 c20 -6 37 -15 37 -19 0 -7 -63 10 -115 32 -26 11 26 2 78 -13z m1069 -53 c7 -10 12 -12 48 -14 11 0 20 -8 20 -17 0 -12 -6 -15 -22 -10 -13 3 -48 6 -78 7 -45 1 -49 3 -25 8 l30 8 -42 12 c-24 6 -43 14 -43 17 0 10 105 -1 112 -11z m35 9 c-3 -3 -12 -4 -19 -1 -8 3 -5 6 6 6 11 1 17 -2 13 -5z m-167 -19 c0 -12 -14 -15 -72 -14 -40 0 -95 5 -123 9 -39 7 -33 7 31 3 54 -3 84 -1 88 6 11 17 76 14 76 -4z m-622 -20 c12 -12 -7 -12 -73 1 l-70 14 69 -5 c38 -2 71 -7 74 -10z m207 -10 c23 -10 26 -14 10 -14 -29 -1 -65 10 -65 20 0 13 20 10 55 -6z m205 -15 c-9 -6 -8 -9 6 -13 10 -2 -12 -2 -51 1 -38 2 -74 9 -80 14 -6 6 3 7 26 3 20 -4 39 -3 42 2 4 6 20 8 38 5 20 -3 27 -7 19 -12z m437 13 c-4 -3 -10 -3 -14 0 -3 4 0 7 7 7 7 0 10 -3 7 -7z m96 -17 c33 -20 106 -29 124 -14 9 7 17 8 21 2 4 -6 23 -16 42 -24 l34 -14 -34 -8 c-19 -5 -64 -8 -100 -7 -36 1 -72 1 -79 0 -27 -2 2 -19 39 -24 19 -2 15 -3 -10 -1 -100 6 -240 25 -325 43 -78 17 -84 19 -46 20 25 1 71 -4 102 -11 47 -10 63 -9 83 2 18 9 45 11 91 7 36 -3 65 -4 65 -1 0 3 -19 14 -42 24 -39 18 -41 20 -15 20 15 0 38 -6 50 -14z m84 -2 c-3 -3 -12 -4 -19 -1 -8 3 -5 6 6 6 11 1 17 -2 13 -5z m-1060 -10 c-3 -3 -12 -4 -19 -1 -8 3 -5 6 6 6 11 1 17 -2 13 -5z m257 -27 c15 -11 12 -12 -23 -9 -23 2 -44 8 -47 13 -8 14 50 11 70 -4z m454 -58 c40 -5 94 -9 120 -9 26 0 54 -5 62 -11 11 -7 0 -9 -40 -8 -55 3 -55 2 -52 -25 3 -25 1 -27 -20 -21 -13 4 -27 13 -33 19 -10 13 -52 21 -175 35 -36 4 -58 9 -50 11 8 1 22 1 30 0 21 -3 0 17 -25 23 -26 7 89 -2 183 -14z m-354 -31 c-15 -7 -28 -7 -40 1 -16 9 -12 10 21 10 35 0 37 -2 19 -11z m556 -58 c0 -6 -11 -8 -27 -4 -40 10 -41 14 -5 14 18 0 32 -5 32 -10z m-970 -20 c23 -7 22 -8 -10 -8 -19 0 -44 3 -55 8 -17 7 -15 9 10 8 17 0 41 -4 55 -8z m794 -101 c141 -10 161 -13 151 -29 -6 -9 -47 -7 -192 10 -45 6 -85 9 -90 8 -16 -4 -73 14 -73 23 0 6 14 8 33 4 17 -3 94 -10 171 -16z m-742 -75 c-4 -91 -10 -93 -12 -4 -3 77 -2 80 8 80 4 0 6 -34 4 -76z m214 49 c-3 -16 -12 -95 -20 -176 -15 -158 -32 -219 -22 -77 3 47 8 123 12 170 6 98 9 110 25 110 7 0 9 -10 5 -27z m-104 -153 l-20 -45 4 84 c2 55 8 87 16 92 22 14 22 -80 0 -131z m-162 -82 c-8 -49 -16 -68 -27 -68 -11 0 -13 5 -8 18 5 9 14 49 21 87 16 87 16 85 21 55 3 -14 0 -55 -7 -92z m351 -36 c1 -42 2 -44 9 -17 6 22 8 9 9 -47 1 -51 -3 -78 -10 -78 -7 0 -10 14 -7 35 4 36 -6 36 -15 0 -3 -11 -5 22 -6 73 -1 60 3 91 9 87 6 -3 11 -27 11 -53z m56 -89 c-4 -3 -7 0 -7 7 0 7 3 10 7 7 3 -4 3 -10 0 -14z m-190 -20 c-4 -3 -7 0 -7 7 0 7 3 10 7 7 3 -4 3 -10 0 -14z m110 -40 c-4 -3 -7 0 -7 7 0 7 3 10 7 7 3 -4 3 -10 0 -14z m143 -50 c0 -5 -5 -26 -11 -48 -5 -22 -14 -57 -20 -78 -5 -23 -24 -53 -45 -72 l-35 -33 7 46 c3 26 10 54 15 62 5 9 6 3 3 -17 -4 -18 -4 -33 -1 -33 13 0 35 57 41 109 4 30 9 58 12 63 6 10 34 11 34 1z m-190 -353 c-6 -12 -9 -24 -7 -27 11 -10 45 17 51 40 5 20 10 23 32 19 l27 -5 -51 -48 c-65 -63 -86 -65 -77 -6 4 23 12 51 18 62 10 18 12 18 15 3 2 -9 -2 -27 -8 -38z m-303 -76 c44 -25 55 -47 14 -24 -14 7 -21 7 -21 0 0 -19 -16 -10 -33 20 -22 37 -16 37 40 4z"/>
 <path d="M1586 3721 c-4 -7 -5 -15 -2 -18 9 -9 19 4 14 18 -4 11 -6 11 -12 0z"/>
 <path d="M1670 3638 c0 -15 5 -30 10 -33 13 -8 13 25 0 45 -8 12 -10 9 -10 -12z"/>
 <path d="M1766 3443 c8 -49 32 -129 33 -109 1 30 -22 136 -30 136 -4 0 -5 -12 -3 -27z"/>
 <path d="M1704 3293 c0 -95 -4 -164 -12 -192 -16 -51 -9 -61 37 -54 38 6 38 6 6 148 -8 38 -15 109 -15 157 0 49 -4 88 -9 88 -4 0 -8 -66 -7 -147z"/>
 <path d="M1370 3261 c0 -5 5 -13 10 -16 6 -3 10 -2 10 4 0 5 -4 13 -10 16 -5 3 -10 2 -10 -4z"/>
 <path d="M1330 3111 c0 -16 5 -33 10 -36 6 -4 10 6 10 24 0 16 -4 33 -10 36 -6 4 -10 -6 -10 -24z"/>
 <path d="M1705 3010 c-18 -35 -19 -54 -3 -44 8 5 9 2 5 -9 -3 -10 -2 -17 3 -17 5 0 11 8 15 19 3 10 14 26 25 36 11 10 20 25 20 33 0 12 -4 12 -20 -3 -18 -17 -20 -17 -14 -2 11 29 -15 19 -31 -13z"/>
 <path d="M1854 3010 c3 -17 15 -40 27 -53 20 -20 21 -20 14 -2 -4 11 -13 35 -19 53 -14 40 -31 42 -22 2z"/>
 <path d="M1680 3019 c0 -5 5 -7 10 -4 6 3 10 8 10 11 0 2 -4 4 -10 4 -5 0 -10 -5 -10 -11z"/>
 <path d="M1755 2938 c-18 -61 -18 -68 -5 -68 6 0 10 9 10 20 0 11 6 36 14 55 8 19 11 37 6 40 -5 3 -16 -18 -25 -47z"/>
 <path d="M1787 2933 c-2 -5 -9 -26 -15 -48 -42 -146 -51 -179 -48 -182 2 -2 17 -5 35 -6 17 -1 31 -5 31 -9 0 -28 -33 -124 -45 -131 -8 -4 -15 -18 -15 -30 1 -19 2 -20 13 -6 8 11 22 15 44 12 22 -4 34 -1 37 8 2 8 7 77 10 154 5 126 4 137 -9 110 -8 -16 -18 -46 -24 -65 -7 -27 -9 -7 -6 83 3 110 2 128 -8 110z"/>
 <path d="M1715 2880 c-3 -5 -1 -10 4 -10 6 0 11 5 11 10 0 6 -2 10 -4 10 -3 0 -8 -4 -11 -10z"/>
 <path d="M1340 2711 c0 -12 5 -21 10 -21 6 0 10 6 10 14 0 8 -4 18 -10 21 -5 3 -10 -3 -10 -14z"/>
 <path d="M1310 2660 c0 -11 5 -20 10 -20 6 0 10 9 10 20 0 11 -4 20 -10 20 -5 0 -10 -9 -10 -20z"/>
 <path d="M1720 2670 c0 -7 3 -10 7 -7 3 4 3 10 0 14 -4 3 -7 0 -7 -7z"/>
 <path d="M1375 2633 c-3 -21 -10 -72 -14 -113 l-8 -75 -1 88 c-2 80 -14 112 -26 70 -16 -58 -17 -145 -2 -177 17 -37 61 -54 70 -29 4 8 6 73 6 144 0 126 -11 167 -25 92z"/>
 <path d="M1869 2533 c0 -32 -4 -78 -8 -103 l-7 -45 -9 70 c-8 69 -8 69 -16 30 -5 -22 -9 -79 -11 -127 -1 -49 -6 -88 -10 -88 -4 0 -8 -9 -8 -20 0 -11 5 -20 10 -20 6 0 10 5 10 10 0 6 4 10 10 10 5 0 8 -18 5 -42 -2 -24 -7 -76 -10 -116 l-5 -73 27 3 c26 3 27 5 24 51 -2 45 -1 47 23 47 l26 0 -1 118 c-1 140 -10 179 -28 113 -7 -24 -13 -52 -14 -62 -1 -9 -5 -15 -10 -12 -5 3 -13 -1 -18 -8 -7 -12 -9 -11 -9 1 1 8 7 23 15 34 8 11 12 31 9 50 -2 17 -1 25 2 18 4 -9 12 -4 26 19 18 30 19 37 7 115 -7 46 -17 84 -21 84 -4 0 -8 -26 -9 -57z"/>
 <path d="M1670 2470 c0 -7 3 -10 7 -7 3 4 3 10 0 14 -4 3 -7 0 -7 -7z"/>
 <path d="M1677 2378 c8 -72 13 -73 13 -5 0 32 -4 57 -10 57 -5 0 -7 -22 -3 -52z"/>
 <path d="M1300 2400 c0 -5 5 -10 10 -10 6 0 10 5 10 10 0 6 -4 10 -10 10 -5 0 -10 -4 -10 -10z"/>
 <path d="M1300 2318 c0 -19 2 -20 10 -8 13 19 13 30 0 30 -5 0 -10 -10 -10 -22z"/>
 <path d="M1938 2074 c-5 -4 -8 -22 -8 -40 0 -18 -5 -34 -11 -36 -6 -2 -9 -13 -7 -25 3 -19 5 -20 21 -8 14 10 17 24 15 65 -2 28 -6 48 -10 44z"/>
 <path d="M1911 1898 c1 -37 2 -39 9 -18 12 36 12 60 0 60 -5 0 -10 -19 -9 -42z"/>
 <path d="M80 1688 c0 -34 27 -86 53 -102 29 -18 99 -32 77 -16 -12 9 -8 11 18 6 46 -8 39 5 -18 33 -28 13 -50 28 -50 32 0 5 20 6 45 2 25 -3 45 -3 45 0 0 11 -83 50 -110 52 -14 2 -33 6 -42 10 -14 6 -18 2 -18 -17z"/>
 <path d="M280 1660 c0 -7 3 -10 7 -7 3 4 3 10 0 14 -4 3 -7 0 -7 -7z"/>
 <path d="M70 1610 c0 -5 5 -10 11 -10 5 0 7 5 4 10 -3 6 -8 10 -11 10 -2 0 -4 -4 -4 -10z"/>
 <path d="M1971 1571 c-19 -10 -30 -20 -25 -23 21 -13 236 -30 247 -19 7 7 1 12 -19 16 -16 4 -57 15 -91 26 -74 23 -69 23 -112 0z"/>
 <path d="M2240 1545 c0 -18 20 -28 60 -29 15 -1 26 -4 24 -8 -11 -18 47 -28 218 -37 181 -10 228 -8 228 10 0 5 -12 11 -27 15 -16 3 -45 12 -66 20 -49 18 -83 18 -91 -2 -8 -21 -111 -16 -111 6 0 11 -22 18 -90 27 -126 16 -145 16 -145 -2z"/>
 <path d="M166 1532 c-8 -13 14 -30 60 -45 31 -11 40 -20 42 -41 3 -22 14 -32 65 -56 115 -54 255 -102 433 -149 51 -14 107 -14 99 -2 -3 6 -44 22 -91 37 -47 14 -83 28 -81 30 3 4 94 -21 156 -42 11 -3 11 -1 2 9 -6 8 -37 22 -69 32 -31 10 -61 22 -67 27 -6 6 -3 7 10 2 16 -5 18 -4 8 6 -6 7 -33 19 -60 26 -84 23 -147 48 -135 52 11 3 30 -2 117 -33 11 -4 7 2 -10 14 -16 12 -75 35 -130 52 -55 16 -124 39 -153 50 -30 10 -57 17 -61 15 -6 -4 -71 7 -113 20 -9 3 -19 1 -22 -4z m481 -178 c-3 -3 -12 -4 -19 -1 -8 3 -5 6 6 6 11 1 17 -2 13 -5z"/>
 <path d="M2894 1496 c-10 -7 -31 -16 -46 -20 -16 -3 -28 -10 -28 -15 0 -12 95 -23 135 -15 19 3 90 12 157 19 68 7 105 13 82 14 -22 0 -65 5 -95 10 -105 18 -185 21 -205 7z"/>
 <path d="M2790 1470 c0 -5 5 -10 10 -10 6 0 10 5 10 10 0 6 -4 10 -10 10 -5 0 -10 -4 -10 -10z"/>
 <path d="M880 1380 c0 -5 5 -10 11 -10 5 0 7 5 4 10 -3 6 -8 10 -11 10 -2 0 -4 -4 -4 -10z"/>
 <path d="M2870 1220 c0 -5 21 -10 48 -9 35 0 42 3 27 9 -28 12 -75 12 -75 0z"/>
 <path d="M2458 1199 c11 -10 182 -18 182 -9 0 5 -43 10 -95 12 -52 2 -91 0 -87 -3z"/>
 <path d="M1908 1193 c7 -3 16 -2 19 1 4 3 -2 6 -13 5 -11 0 -14 -3 -6 -6z"/>
 <path d="M2701 1114 c-12 -15 -21 -31 -21 -37 0 -21 176 11 224 40 18 12 -29 22 -106 22 -71 1 -78 -1 -97 -25z"/>
 <path d="M2942 1113 c-18 -7 -44 -61 -32 -68 5 -3 36 -1 67 4 100 18 201 31 238 31 20 0 34 4 30 9 -3 5 -56 10 -118 10 -61 1 -125 5 -142 9 -16 5 -36 7 -43 5z"/>
 <path d="M3148 1053 c-10 -2 -18 -9 -18 -14 0 -15 43 -7 48 9 4 12 0 13 -30 5z"/>
 <path d="M2238 1033 c-10 -2 -18 -8 -18 -12 0 -12 43 -6 48 7 4 12 0 13 -30 5z"/>
 <path d="M1643 1023 c4 -3 10 -3 14 0 3 4 0 7 -7 7 -7 0 -10 -3 -7 -7z"/>
 <path d="M2770 1020 c0 -5 25 -10 55 -10 30 0 55 5 55 10 0 6 -25 10 -55 10 -30 0 -55 -4 -55 -10z"/>
 <path d="M1640 990 c0 -7 3 -10 7 -7 3 4 3 10 0 14 -4 3 -7 0 -7 -7z"/>
 <path d="M1041 564 c0 -11 3 -14 6 -6 3 7 2 16 -1 19 -3 4 -6 -2 -5 -13z"/>
 <path d="M1611 176 c-8 -9 -11 -19 -7 -23 9 -9 29 13 24 27 -2 8 -8 7 -17 -4z"/>
 <path d="M1560 120 c-19 -11 -29 -19 -22 -20 14 0 72 28 72 35 0 9 -15 4 -50 -15z"/>
 </g>

</svg>